<?xml version="1.0" encoding="UTF-8" standalone="no"?>
<svg
   version="1.0"
   width="118.000000pt"
   height="100.000000pt"
   viewBox="0 0 118.000000 100.000000"
   preserveAspectRatio="xMidYMid meet"
   id="svg15"
   sodipodi:docname="Capture-d’écran-2022-01-31-à-12.18.08.svg"
   inkscape:version="1.2-dev (9ee32be, 2021-06-19)"
   xmlns:inkscape="http://www.inkscape.org/namespaces/inkscape"
   xmlns:sodipodi="http://sodipodi.sourceforge.net/DTD/sodipodi-0.dtd"
   xmlns="http://www.w3.org/2000/svg"
   xmlns:svg="http://www.w3.org/2000/svg">
  <defs
     id="defs19" />
  <sodipodi:namedview
     id="namedview17"
     pagecolor="#ffffff"
     bordercolor="#666666"
     borderopacity="1.0"
     inkscape:pageshadow="2"
     inkscape:pageopacity="0.0"
     inkscape:pagecheckerboard="0"
     inkscape:document-units="pt"
     showgrid="false"
     inkscape:zoom="4.1925"
     inkscape:cx="78.711986"
     inkscape:cy="66.666667"
     inkscape:window-width="1440"
     inkscape:window-height="781"
     inkscape:window-x="0"
     inkscape:window-y="25"
     inkscape:window-maximized="1"
     inkscape:current-layer="g13" />
  <g
     transform="translate(0.000000,100.000000) scale(0.100000,-0.100000)"
     fill="#000000"
     stroke="none"
     id="g13">
    <path
       d="M508 752 l-138 -138 0 -246 c0 -136 3 -254 6 -263 15 -39 54 -45 277 -45 190 0 217 2 236 17 31 26 173 358 174 410 2 50 -23 90 -74 115 -27 14 -60 18 -161 18 -108 0 -128 2 -128 15 0 8 9 55 20 105 26 117 14 150 -53 150 -14 0 -68 -47 -159 -138z"
       id="path9" />
    <path
       d="M135 545 c-25 -24 -25 -25 -25 -227 1 -212 3 -223 47 -246 35 -19 63 -14 94 17 l29 29 0 192 c0 236 -8 260 -91 260 -18 0 -39 -10 -54 -25z"
       id="path11" />
    <path
       style="fill:#05602f;stroke-width:0.238521"
       d="m 67.024448,124.95214 c -10.948261,-0.60139 -14.752851,-1.74821 -16.379863,-4.93742 -0.804279,-1.57652 -0.92323,-5.82745 -1.065637,-38.082699 L 49.444682,51.520572 62.766467,38.273681 c 15.696868,-15.608619 20.790492,-20.33805 24.364932,-22.622839 1.252303,-0.800474 1.28077,-0.806101 3.458018,-0.683451 2.647186,0.149123 3.991945,0.674746 5.228768,2.043761 1.242979,1.375829 1.707847,3.108384 1.675528,6.244662 -0.03155,3.061633 -0.441486,5.723822 -2.093536,13.595707 -0.702059,3.345259 -1.504554,7.404815 -1.783318,9.021235 -0.459826,2.66629 -0.472919,2.990729 -0.141133,3.497097 0.642516,0.980606 1.933889,1.09501 14.890374,1.319173 12.46567,0.215668 16.46917,0.440761 19.46782,1.094559 2.14815,0.46836 6.0223,2.380985 7.94738,3.923532 4.90695,3.931891 6.8303,9.790297 5.2034,15.849234 -1.38873,5.171909 -5.78876,16.932894 -9.72671,25.998807 -4.17296,9.606942 -8.70759,19.112532 -10.69591,22.420992 -1.93691,3.22291 -3.267,4.10253 -7.07229,4.67708 -1.30502,0.19704 -8.31803,0.29554 -23.448049,0.32932 -11.872391,0.0265 -22.230173,0.0128 -23.017293,-0.0304 z"
       id="path138"
       transform="matrix(7.5,0,0,-7.5,0,1000)" />
    <path
       style="fill:#05602f;stroke-width:0.238521"
       d="m 64.519976,124.69728 c -2.282025,-0.13969 -6.982201,-0.79071 -8.450471,-1.17048 -2.704745,-0.69958 -4.758871,-2.14345 -5.390693,-3.78917 -0.598684,-1.55941 -0.711518,-5.93417 -0.938177,-36.374482 L 49.505311,51.759094 60.053788,41.190776 C 78.205455,23.004967 86.19516,15.680716 88.519676,15.095778 c 0.277948,-0.06994 1.415136,-0.04425 2.527084,0.0571 3.086855,0.281353 4.608815,1.264205 5.714468,3.690292 0.483485,1.06089 0.541677,1.54824 0.526903,4.412642 -0.01844,3.574167 -0.111659,4.180554 -2.367291,15.398278 -1.89814,9.439838 -2.007039,10.323578 -1.34562,10.919866 0.267575,0.241229 0.896856,0.537238 1.398397,0.657796 0.501541,0.120561 6.835383,0.377551 14.075213,0.571092 16.99634,0.454361 18.38538,0.609466 22.42942,2.504565 3.879,1.81776 6.64637,4.286435 8.26381,7.371838 1.29433,2.469042 1.65016,4.205374 1.5203,7.418545 -0.10302,2.549245 -0.20794,3.037829 -1.48533,6.917114 -2.5919,7.871298 -5.95372,16.452386 -10.09213,25.760284 -5.01872,11.28786 -8.52641,18.34032 -10.26807,20.64471 -1.79595,2.37623 -3.32554,2.9314 -8.86227,3.21663 -3.65306,0.18819 -43.102229,0.24025 -46.034584,0.0608 z"
       id="path177"
       transform="matrix(7.5,0,0,-7.5,0,1000)" />
    <path
       style="fill:#05602f;stroke-width:0.238521"
       d="m 64.639237,124.71652 c -8.245281,-0.79342 -10.83893,-1.45858 -12.721603,-3.26253 -1.174216,-1.12512 -1.462424,-1.84573 -1.713559,-4.28444 -0.124738,-1.21129 -0.33566,-16.42674 -0.468716,-33.812105 L 49.493439,51.747688 61.47898,39.804002 C 78.178099,23.163197 83.09423,18.54013 86.615101,16.166314 c 1.763456,-1.188946 1.975081,-1.237341 4.431659,-1.013434 3.08462,0.281149 4.600951,1.259429 5.719945,3.690292 0.491895,1.068581 0.546562,1.527474 0.52566,4.412642 -0.02596,3.583391 -0.137224,4.308054 -2.376966,15.481128 -1.914514,9.550653 -1.999351,10.242741 -1.329581,10.846607 0.273404,0.246502 0.95635,0.537813 1.517657,0.647354 0.561305,0.109541 6.887815,0.361927 14.058905,0.560854 16.87087,0.468004 18.39416,0.639141 22.31185,2.506685 3.98598,1.900096 6.63064,4.261439 8.27288,7.386631 1.15837,2.204389 1.57734,3.98547 1.57316,6.68764 -0.004,2.64312 -0.27351,3.916446 -1.7936,8.477019 -3.56254,10.688329 -9.95043,25.935498 -16.0066,38.205908 -3.22711,6.53845 -4.53056,8.47171 -6.33904,9.40193 -2.41973,1.24462 -2.079,1.22875 -27.735592,1.29198 -13.118664,0.0323 -24.281455,0.0175 -24.806201,-0.033 z"
       id="path216"
       transform="matrix(7.5,0,0,-7.5,0,1000)" />
    <path
       style="fill:#05602f;stroke-width:0.238521"
       d="m 23.48759,124.67112 c -1.734528,-0.57418 -4.041676,-1.8158 -5.172195,-2.78348 -1.568078,-1.34222 -2.43648,-3.6708 -2.936653,-7.87452 -0.706772,-5.94008 -0.692693,-45.044374 0.01747,-48.539059 0.380225,-1.871058 1.31706,-3.445066 2.906651,-4.883563 1.675071,-1.515853 3.872555,-2.662604 5.761823,-3.006791 1.820615,-0.331681 5.738215,0.07197 7.271623,0.749227 2.789629,1.232095 4.239766,3.982518 5.022682,9.526339 0.556389,3.939793 0.733926,9.814889 0.882947,29.218843 l 0.155706,20.274304 -3.089239,3.00351 c -2.358459,2.29301 -3.46639,3.18918 -4.683576,3.7884 -2.02275,0.9958 -4.164943,1.17967 -6.137244,0.52679 z"
       id="path255"
       transform="matrix(7.5,0,0,-7.5,0,1000)" />
  </g>
</svg>
